<?xml version="1.0" standalone="no"?>
<svg class="icon" viewBox="0 0 4000 1024" version="1.1" xmlns="http://www.w3.org/2000/svg"
    width="781.25" height="200">
    <path d="M1487.579913 804.83098c25.167734 0 25.314058-22.509514 25.314058-24.777537l-0.170711-72.406012c0-24.38734-24.75315-24.777537-24.75315-24.777537l-512.524327-0.390197c-49.116102 0-48.384482-47.555312-48.384482-47.555312-0.634071-3.097192 0.024387-49.603849 0-49.603849h487.941889c135.471671 0 121.741599-97.549358 121.741599-97.549358v-96.647026s13.217938-171.613708-170.321179-171.613709H955.350615c-186.807021 0-174.149992 169.321298-174.149992 169.321299l0.024387 245.092762c0 170.882088 170.95525 170.126081 170.955251 170.126081m414.267736-340.300936l-439.386696 0.024387 0.097549-72.771821c0-24.777537 23.533783-49.067327 49.067327-49.164877 23.680107-0.073162 342.032437 0 366.566101 0 22.09493 0 47.750411 24.777537 47.628474 48.774679-0.097549 19.022125-0.390197 30.654886-0.390197 48.77468 0 0.024387 0 24.362952-23.582558 24.362952zM707.331372 0.048775h-97.232323s-24.411727 0-24.411727 25.143347L585.565385 219.534831c-102.670699-0.024387-208.9995 0.048775-315.864821 0C40.191311 219.461669-0.21851 418.218486 0.000976 512.524328c0.243873 94.281455 41.263379 291.892067 273.333301 291.672581 232.09431-0.219486 238.581343 0.292648 336.837934 0.292648 121.668437 0 121.790374-121.229465 121.790374-121.229465V24.411727c0-24.362952-24.631213-24.362952-24.631213-24.362952z m-122.083022 659.067851s0.390197 23.777656-24.38734 23.777656c-26.5822 0-156.396008 0.292648-236.166996 0.048775-79.795375-0.243873-177.612994-17.753983-177.661768-168.882327-0.073162-151.128343 108.669985-172.05268 176.515563-172.05268 67.821191 0 261.578604 0.268261 261.578604 0.26826l0.121937 316.840316zM3292.633236 146.372812h-97.549358a24.38734 24.38734 0 0 1-24.387339-24.38734V24.436114a24.38734 24.38734 0 0 1 24.387339-24.387339h97.549358a24.38734 24.38734 0 0 1 24.38734 24.387339v97.549358a24.38734 24.38734 0 0 1-24.38734 24.38734zM3292.633236 804.83098h-97.549358a24.38734 24.38734 0 0 1-24.387339-24.38734V243.92217a24.38734 24.38734 0 0 1 24.387339-24.387339h97.549358a24.38734 24.38734 0 0 1 24.38734 24.387339v536.52147a24.38734 24.38734 0 0 1-24.38734 24.38734zM3755.992688 219.705542c-179.149396-0.243873-390.197433-0.048775-390.197433-0.048775v560.421063c0 11.047465 7.072328 27.362595 29.191645 24.533663l85.184977-0.292648c33.605754 4.804306 32.63026-24.631213 32.630261-24.631213l-0.73162-437.825906s178.417776-0.170711 243.702684-0.170712c4.097073 0 98.524852 1.82905 98.524851 121.741599l-0.707232 317.059802a24.38734 24.38734 0 0 0 24.411726 24.436114l97.500584-0.073162a24.38734 24.38734 0 0 0 24.362952-24.38734V452.311986c0-135.154636-64.723999-232.362571-243.873395-232.606444z"
          fill="#3EA9FD" ></path>
    <path d="M585.199575 660.384767c-0.317035 4.853081-2.950868 22.509514-24.338565 22.509515-26.5822 0-156.396008 0.292648-236.166996 0.048775-79.770988-0.243873-177.661769-17.753983-177.661768-168.882327 0-156.761819 108.669985-172.05268 176.515563-172.05268 0 0-392.367906-8.681893-284.722189 322.693277 31.996189 88.672367 119.205316 139.593132 234.48427 139.495582 141.422182-0.121937 125.838672 0 171.540546 0.121936 78.966205 0.024387 140.349139-65.284908 140.349139-143.934078z"
          fill="#2659B8" ></path>
    <path d="M2414.762175 1023.975613h97.159161s24.38734 0 24.387339-25.143347l0.09755-194.342709c102.670699 0.024387 208.9995-0.048775 315.840434 0 229.509252 0.073162 269.919074-198.683655 269.699588-292.989497-0.243873-94.281455-41.263379-291.892067-273.333302-291.672581-232.118698 0.219486-238.435019-0.292648-336.667222-0.292648-121.668437 0-121.64405 121.229465-121.64405 121.229464v658.848365c0 24.362952 24.460502 24.362952 24.460502 24.362953z m121.91231-659.043464s-0.390197-23.802043 24.38734-23.802043c26.5822 0 156.396008-0.292648 236.166996-0.048775 79.770988 0.243873 177.612994 17.753983 177.661769 168.882326 0.073162 151.128343-108.645598 172.05268-176.515564 172.052681-67.821191 0-261.578604-0.268261-261.578604-0.268261l-0.121937-316.815928z"
          fill="#3EA9FD" ></path>
    <path d="M1487.97011 682.894282s-450.848746-0.36581-510.987925-0.36581c-50.237919 0-49.920884-47.579699-49.920884-47.5797s-11.218176 169.85782 136.666651 169.85782L1487.555526 804.83098c26.313939 0 24.777537-24.38734 24.777537-24.38734v-72.771821c0.024387-23.631332-24.362952-24.777537-24.362953-24.777537z"
          fill="#2659B8"></path>
    <path d="M2292.362118 804.83098c25.167734 0 25.314058-22.509514 25.314058-24.777537l-0.170711-72.406012c0-24.38734-24.75315-24.777537-24.75315-24.777537l-512.524328-0.390197c-49.140489 0-48.384482-47.555312-48.384481-47.555312-0.634071-3.097192 0.024387-49.603849 0-49.603849h487.941889c135.471671 0 121.741599-97.549358 121.741599-97.549358v-96.647026s13.217938-171.613708-170.321179-171.613709H1760.13282c-186.807021 0-174.149992 169.321298-174.149992 169.321299l0.024387 245.092762c0 170.882088 170.95525 170.126081 170.95525 170.126081m414.267737-340.300936l-439.386696 0.024387 0.097549-72.771821c0-24.777537 23.533783-49.067327 49.067327-49.164877 23.680107-0.073162 342.032437 0 366.566101 0 22.09493 0 47.750411 24.777537 47.628474 48.774679-0.097549 19.022125-0.390197 30.654886-0.390197 48.77468 0.024387 0.024387 0.024387 24.362952-23.582558 24.362952z"
          fill="#3EA9FD"></path>
    <path d="M2292.752315 682.894282s-450.848746-0.36581-510.987925-0.36581c-50.237919 0-49.920884-47.579699-49.920884-47.5797s-11.218176 169.85782 136.666651 169.85782L2292.33773 804.83098c26.313939 0 24.777537-24.38734 24.777537-24.38734v-72.771821c0.024387-23.631332-24.362952-24.777537-24.362952-24.777537zM3067.19667 562.762247c-24.899474-135.154636-147.884827-193.001405-147.884827-193.001405l-1.877825 0.341423c33.630141 23.509395 57.407797 65.431232 57.432184 139.861392 0.073162 151.128343-108.669985 172.05268-176.515563 172.052681-67.821191 0-261.578604-0.268261-261.578604-0.268261L2536.674485 439.020886h-0.048774v365.468671c102.597537 0.024387 325.839244-0.341423 330.863035-0.609684l-0.097549 0.219486c49.920884 0.048775 95.549596-18.778251 95.549596-18.778251 109.938127-70.235538 114.547334-166.73624 104.255877-222.558861zM3292.633236 219.534831h-97.549358s121.936698 104.475363 121.936698 318.913239V243.92217a24.38734 24.38734 0 0 0-24.38734-24.387339zM3195.083878 146.372812h97.549358a23.509395 23.509395 0 0 0 8.389245-1.707114c-114.0352-14.12027-130.325943-117.181166-130.325942-117.181166V121.985472a24.38734 24.38734 0 0 0 24.387339 24.38734zM3765.796398 342.568959c25.11896 3.633714 88.526043 22.558289 88.526043 120.863654l-0.707233 317.059802a24.38734 24.38734 0 0 0 24.411727 24.436114l97.500583-0.073162a24.38734 24.38734 0 0 0 24.362952-24.38734v-258.993546c-0.024387-158.273834-234.094072-178.905523-234.094072-178.905522z"
          fill="#2659B8"></path>
</svg>