<?xml version="1.0" standalone="no"?>
<svg  class="icon" viewBox="0 0 1618 1024" version="1.1" xmlns="http://www.w3.org/2000/svg"
     width="316.015625" height="200">
    <path d="M1601.27619 751.253114c0 1.231495-1.042536 2.287063-2.33919 2.287062h-1.042535a2.319642 2.319642 0 0 1-2.287063-2.287062v-19.410712H1584.654261v19.410712c0 1.231495-1.107694 2.287063-2.410863 2.287062h-0.964346a2.319642 2.319642 0 0 1-2.293578-2.287062v-19.410712h-8.209969a2.085071 2.085071 0 0 1-2.15023-2.15023v-1.107694c0-1.30317 0.977377-2.085071 2.15023-2.085071h28.73489c1.107694 0 1.889596 0.403983 2.280547 1.042535l5.408154 8.144811 5.408154-8.144811c0.456109-0.586426 1.107694-1.042536 2.287063-1.042535h3.65539v24.955698c0 1.179369-1.107694 2.287063-2.410863 2.287063l-0.325793-0.18896h-1.042536a2.319642 2.319642 0 0 1-2.287062-2.287063v-16.28962l-3.583717 5.473313a2.241452 2.241452 0 0 1-1.765795 0.781901h-0.397466c-0.658101 0-1.440002-0.260634-1.817922-0.781901l-3.655391-5.473313 0.013032 16.276589z m-38.45002 181.792162v5.284353c0 11.591694-8.802911 20.068812-20.987547 20.068812H1383.314555c-11.539567 0-20.133971-8.666078-20.133971-20.068812V739.459429c0-11.467893 8.920196-20.068812 20.518406-20.068812l0.065158 0.195475h151.493469c12.184636 0 21.046189 8.405444 21.046189 19.997138v5.284353c0 11.591694-8.861553 19.997138-21.046189 19.997137H1412.049445v52.055111h95.066224c12.184636 0 21.039674 8.548793 21.039673 20.140487v5.219194c0 11.663368-8.855038 20.062296-21.039673 20.062296h-95.066224v50.686783h129.795694c12.249794 0.013032 20.981031 8.548793 20.981031 20.016685z"
          fill="#73BA25"></path>
    <path d="M1418.891085 103.968762c50.100356 1.765795 89.403952 43.981975 87.703316 94.030204-0.918735 24.238955-11.070426 46.653472-28.800049 63.203727-17.729623 16.615413-40.795725 25.209816-65.158481 24.362756-50.048229-1.817922-89.260603-43.981975-87.631641-94.023688 0.84706-24.238955 10.998752-46.718631 28.800049-63.268885a90.094632 90.094632 0 0 1 65.086806-24.304114z m63.92047 92.134092c1.179369-35.648205-26.721493-65.614591-62.35015-66.852601a63.627257 63.627257 0 0 0-46.269038 17.260481 63.777121 63.777121 0 0 0-20.466279 44.959352c-1.179369 35.641689 26.721493 65.608075 62.298024 66.917761a64.747983 64.747983 0 0 0 46.392839-17.332156 63.940018 63.940018 0 0 0 20.394604-44.952837z"
          fill="#FFFFFF" ></path>
    <path d="M1420.461405 129.250253c35.641689 1.231495 63.529519 31.204397 62.35015 66.852601a63.940018 63.940018 0 0 1-20.394604 44.952837 64.747983 64.747983 0 0 1-46.392839 17.332156c-35.576531-1.30317-63.464361-31.276071-62.298024-66.917761a63.76409 63.76409 0 0 1 20.466279-44.959352 63.633773 63.633773 0 0 1 46.269038-17.260481z m39.21889 51.540358c0-10.620832-12.842737-19.150078-28.669732-19.150077-15.826995 0-28.604573 8.535761-28.604573 19.150077 0 10.490515 12.771062 19.097951 28.604573 19.097951 15.833511-0.006516 28.669732-8.607435 28.669732-19.097951z"
          fill="#73BA25" ></path>
    <path d="M1431.010563 161.634018c15.840027 0 28.669732 8.535761 28.669732 19.150078 0 10.490515-12.842737 19.097951-28.669732 19.09795-15.826995 0-28.604573-8.60092-28.604573-19.09795 0-10.614317 12.771062-19.150078 28.604573-19.150078z"
          fill="#FFFFFF"></path>
    <path d="M1321.413998 866.518467v31.862497c0 36.501781-21.762933 60.017477-55.710502 60.017477h-129.469902c-12.184636 0-20.987547-8.542277-20.987547-20.068812v-5.284353c0-11.539567 8.802911-20.003654 20.987547-20.003654h122.830253c13.357489 0 13.741924-18.309533 13.741924-20.32293V873.620741c0-6.255214-2.476022-13.618123-13.741924-13.618122H1169.073469c-25.613799 0-53.35828-20.981031-53.358281-54.798283v-29.510276c0-23.066102 21.762933-56.303444 60.981823-56.303443v0.260633h105.693572c12.314953 0 21.43714 8.666078 21.437141 20.003654v5.277837c0 11.474409-9.063545 20.068812-20.987547 20.068812h-98.128673c-12.894863 0-20.257772 6.326889-20.257772 17.397315v17.527631c0 7.167433 5.99458 16.993332 19.358585 16.993332h88.615534c24.421399 0.013032 48.986146 15.390433 48.986147 49.598636z m-269.039369-147.12785c11.800201 0 20.987547 9.252504 20.987547 21.039673v156.569314c0 36.430107-28.611089 62.825808-68.090613 62.825808h-73.166459c-39.492555 0-68.084097-26.395701-68.084096-62.825808v-156.569314a20.850714 20.850714 0 0 1 20.98103-21.039673h6.652681a20.981031 20.981031 0 0 1 21.039674 21.039673V891.213531c0 12.054319 9.708614 21.762933 21.697774 21.762933h68.481564c11.924002 0 21.697774-9.708614 21.697774-21.762933v-150.776725a21.078769 21.078769 0 0 1 21.039674-21.039674h0.136832l6.626618-0.006515z m-230.400389 147.12785v31.862497c0 36.501781-21.886734 60.017477-55.710502 60.017477h-129.53506c-12.249794 0-21.046189-8.542277-21.04619-20.068812v-5.284353c0-11.539567 8.861553-20.003654 21.04619-20.003654h122.823737c13.29233 0 13.618123-18.309533 13.618122-20.32293V873.620741c0-6.255214-2.339189-13.618123-13.618122-13.618122h-89.983863c-25.7376 0-53.364796-20.981031-53.364796-54.798283v-29.510276c0-23.066102 21.697774-56.303444 60.988339-56.303443l0.130316 0.260633h105.752215c12.249794 0 21.43714 8.666078 21.437141 20.003654v5.277837c0 11.474409-9.063545 20.068812-21.04619 20.068812h-98.128672c-12.966538 0-20.329446 6.326889-20.329446 17.397315v17.527631c0 7.167433 5.99458 16.993332 19.352068 16.993332h88.550376c24.43443 0.013032 49.064336 15.390433 49.064337 49.598636z"
          fill="#73BA25" ></path>
    <path d="M1563.810063 320.68587l6.652681-1.238011c1.817922 1.433487 1.557288 4.365618 0.970862 6.971958-1.231495 6.059739-4.176659 17.071522-6.190056 22.2842l-1.694121 4.30046c-2.339189 6.379015-4.697926 12.44527-9.187345 16.094145-12.373596 11.265901-32.181774 20.264288-63.197211 33.817252-47.956642 20.981031-125.69071 34.208203-197.886308 33.752093-25.874433-0.586426-50.89529-3.4534-72.853697-5.929422-67.237037-7.688701-115.845264-13.162013-125.951344 47.956642-12.771062 76.626374 59.300734 169.672685 60.017477 170.513229l-0.071675 2.547697-2.339189 0.586426s-114.874402-52.908687-117.682733-54.465974l-3.655391-2.599823-2.932131-2.808331c-8.666078-8.33377-26.063392-27.034254-61.37929-67.966812-68.481564-79.161039-148.626495-89.592912-210.396735-74.534786-15.051609 3.583716-34.208203 14.5955-46.653473 26.975611-32.246932 31.797339-28.604573 95.848126-26.77362 119.174862 2.15023 26.389185 3.518558 28.350455 4.104985 30.494169l-0.397467 2.664982-2.280547 0.260634-1.30317-0.912219-94.219163-46.067046-3.583717-15.370886c-2.410864-10.171239-5.212678-21.43714-10.555674-35.57653-33.686935-88.817526-109.40109-155.604969-192.803945-170.004993-56.362086-9.702098-159.117011-10.809792-213.530859 91.879974-22.733794 42.874281-21.365466 98.708583 3.590232 145.759522 25.405292 48.158633 70.827269 79.037238 124.583016 84.96666 53.299638 5.805621 93.365588-6.515848 115.845264-35.648205 22.675151-29.386475 26.910453-69.387267 10.816308-101.966508-17.260482-34.983589-43.323874-53.566787-79.558506-56.616204-27.555522-2.476022-48.021801 8.99187-55.384709 20.720397-2.15023 3.661907-6.059739 10.438389-6.118381 20.068812v0.332309c0 26.252352 24.036964 33.426301 28.92385 33.758609 1.498645 0 8.731236-0.195475 18.316049-2.60634l4.626252-1.492129 3.18625-1.11421 2.345705-0.449593c17.462473-3.192766 34.273361 7.102274 39.160247 24.108638 0.84706 3.121091 1.30317 6.255214 1.30317 9.369789 0 11.272417-5.733946 21.769449-15.247085 28.148464l0.390951-0.136833-1.042536 0.586427-1.557287 0.970861c-5.023719 3.192766-9.643455 4.95856-14.530342 6.45069-13.683281 4.489419-25.802759 6.581007-37.987394 6.581006-41.571111-0.065158-99.497001-35.837165-100.278903-103.015558-0.397467-37.922236 18.635326-72.456231 52.126785-94.675274 38.573821-25.476966 105.224431-34.143044 167.066346 3.779192 76.111622 46.588314 95.978443 137.803672 76.111622 200.036537-28.871723 90.114179-110.05919 138.266297-217.244892 128.688001-75.903115-6.776482-146.411107-46.848948-188.366653-107.185702-18.635326-26.721493-32.448924-56.492403-39.876991-86.198155-17.136681-67.966812 0.18896-140.162409 13.096855-172.148707 41.049843-101.712389 119.630971-189.220229 233.332521-260.184331l7.173949-4.489419C554.69415-8.75541 725.86548-2.76083 851.165239 1.604788c147.785951 5.14752 305.397801 56.101452 327.160734 63.34056 0.071674-4.886886 0.918735-48.940535 0.918735-48.940535l0.6581-1.49213 1.694121-0.456109c9.910605 1.368328 222.249063 32.905033 311.724689 85.031818 11.070426 6.515848 16.543738 13.29233 23.391895 20.329446 24.695064 25.542125 57.411138 131.945924 60.858022 153.904332l-1.30317 2.215389c-1.296654 0.456109-4.365618 2.736656-8.470603 5.473312-20.850714 14.5955-69.6479 48.738544-132.206558 43.134915-56.231769-4.952045-129.658862-37.205493-218.209237-95.515818 3.916025 9.18083 22.349359 52.837012 25.47045 60.199921l1.179368 1.440002c12.842737 6.646165 135.861949 69.328624 196.915446 68.084097 49.227233-0.983893 101.810127-25.027373 122.862832-37.668118z m-57.215662-122.69342c1.700636-50.048229-37.602959-92.264409-87.703316-94.030204a90.075084 90.075084 0 0 0-65.086806 24.304114c-17.78175 16.550254-27.952988 39.02993-28.800049 63.268885-1.628962 50.041714 37.596444 92.199251 87.631641 94.023688 24.362756 0.84706 47.428858-7.747343 65.158481-24.362756 17.723107-16.550254 27.88783-38.964772 28.800049-63.203727z m-1009.304873 624.153091c8.470603-4.03331 19.026276-8.99187 32.976707-8.99187h4.30046c24.362756 0 40.131109 14.523825 40.131109 36.873184V947.90141c0 5.922906-4.815212 10.738118-10.620833 10.738118h-4.170143c-5.929422 0-10.620832-4.815212-10.620832-10.738118v-94.349481c0-8.855038-7.232591-16.094145-16.028986-16.094145h-35.387571a16.074597 16.074597 0 0 0-16.028987 16.094145v94.349481c0 5.922906-4.815212 10.738118-10.620832 10.738118h-4.170143c-5.929422 0-10.620832-4.815212-10.620832-10.738118v-124.713333c0-5.33648 3.583716-9.115672 8.535761-9.115672h4.104984c3.916025 0 6.776482 1.694121 8.340285 5.017204l2.932132 5.342995c1.231495 2.215388 1.889596 2.339189 3.518558 2.339189 3.655391 0 8.151326-2.215388 13.429163-4.626252z m-70.175684 26.519502v28.871723c0 12.321469-7.173949 19.619219-19.026277 19.619219h-74.085193v21.762932c0 10.744634 6.059739 16.354779 17.59279 16.354779h41.049843c6.118381 0 10.620832 4.235301 10.620833 10.034406v3.257924c0 5.864263-4.495935 10.099565-10.620833 10.099565h-50.048229c-18.505009 0-34.136528-16.419937-34.136528-35.700332V848.469568c0-19.026276 16.094145-34.397162 35.902323-34.397163l0.065158 0.130317h46.718631c19.808178-0.006516 35.967482 15.501203 35.967482 34.462321z m-25.672442 26.324026v-23.13126c0-8.079652-6.255214-14.334866-14.263191-14.334866h-38.964772c-8.079652 0-14.263192 6.385531-14.263191 14.334866v23.13126h67.491154z m-221.988429 44.112292c0 6.111866 3.388241 11.402734 8.398928 14.139391l-5.99458 13.220655c-1.107694 0-2.339189 1.96127-2.33919 3.779192v63.132053c0 5.799105-4.756569 10.620832-10.620832 10.620832h-4.176659c-5.99458 0-10.620832-4.750053-10.620832-10.620832V823.188077c0-5.075846 3.779192-9.115672 8.281643-9.115672h4.750053c4.039826 0 7.29775 3.121091 8.014493 4.750054l3.121092 6.190055c0.781902 1.107694 2.15023 1.765795 3.583716 1.765795l5.929422 12.771063a15.846543 15.846543 0 0 0-8.33377 14.145906v65.406083z"
          fill="#73BA25"></path>
    <path d="M232.355144 813.218829c24.43443 0 40.137624 14.523825 40.137624 36.873185v72.593064c0 22.733794-15.370886 36.808026-40.137624 36.808026h-4.365618c-14.002558 0-24.564747-4.815212-32.970192-8.666078-5.212678-2.404348-9.643455-4.365618-13.168529-4.365619l5.99458-13.220655c2.287063 1.224979 4.886886 1.954754 7.630058 1.954754h35.381056a16.028986 16.028986 0 0 0 16.028986-16.094145v-65.419115c0-8.998386-7.037116-16.028986-16.028986-16.028986h-35.381056c-2.808331 0-5.408154 0.703712-7.695216 1.88308l-5.929422-12.771062c3.518558 0 7.955851-2.078556 13.031696-4.554578 8.542277-4.039826 19.026276-9.063545 33.03535-9.063545v0.071674h4.437293z m-114.418293 35.250739v75.069086c0 19.28691-15.638035 34.990104-34.794629 34.990104h-48.47791c-19.091435 0-34.657796-15.703194-34.657796-34.990104V848.469568c0-19.026276 16.094145-34.397162 35.902323-34.397163h46.132205c19.801662-0.006516 35.895807 15.436044 35.895807 34.397163z m-25.542125 72.130438v-68.416405c0-7.949335-6.711324-14.660658-14.5955-14.660658h-37.791919a14.67369 14.67369 0 0 0-14.595499 14.660658v68.416405c0 8.216484 6.255214 14.5955 14.269707 14.5955h38.117711c8.079652 0 14.5955-6.581007 14.5955-14.5955z"
          fill="#73BA25" ></path>
</svg>