<svg version="1.1" id="图层_1" xmlns="http://www.w3.org/2000/svg" xmlns:xlink="http://www.w3.org/1999/xlink" x="0px" y="0px"
	 viewBox="0 0 732 172" style="enable-background:new 0 0 732 172;" xml:space="preserve">
<style type="text/css">
	.st0{fill-rule:evenodd;clip-rule:evenodd;fill:#E60012;}
	.st1{fill:#E60012;}
	.st2{fill:#FFFFFF;}
</style>
	<g>
	<path class="st0" d="M57.9,77.3c6.8-3.3,15.5,0.1,19,6.6c15.4,26,30.6,52.1,45.8,78.2c-7.1,0-14.3,0.1-21.3-0.3
		c-9.3-16-19-31.8-28.3-47.8c-2.9-5.1-6.6-9.5-9.4-14.6c-10.1,16.3-19.8,32.6-29.8,49c12.8,0,25.7,0,38.6,0c2.7,4.5,5.4,9.1,8,13.6
		c-25.4,0-50.8,0-76.2,0c14.9-25.2,30.2-50.2,45.1-75.2C51.5,83.1,53.9,79.1,57.9,77.3L57.9,77.3z"/>
		<path class="st0" d="M98.3,76.3c27.4-0.6,54.7-0.1,82-0.3c8,0.1,16.1-0.2,24.1,0.3c0,4.5,0,9,0,13.5c-13.7,0.6-27.4,0.1-41.1,0.3
		c0,24,0,48.1,0,72.1c-5.6,0-11.3,0-17,0c0-24,0-48.1,0-72.1c-13.5-0.2-26.9,0.4-40.4-0.3C103.4,85.2,100.9,80.7,98.3,76.3
		L98.3,76.3z"/>
		<path class="st0" d="M260,72.1c-25.9,0-47,21.1-47,47s21.1,47,47,47s47-21.1,47-47C307,93.1,286,72.1,260,72.1z M260,148.8
		c-16.4,0-29.7-13.3-29.7-29.7s13.3-29.7,29.7-29.7c16.5,0,29.7,13.3,29.7,29.7S276.4,148.8,260,148.8z"/>
		<!-- 替换后的 path 元素 -->
		<path class="st0" d="M409.3,108.6 L384,156.1 L377.3,156.1 L350.4,104.5 L338.6,162.4 L319.4,162.4 L337.6,75.7 L356.2,75.7 
		L380,116.8 L382.2,116.8 L405.4,75.7 L424.9,75.7 L442.5,162.4 L423.1,162.4 L411.6,104.5 L409.3,108.6 Z"/>
		<path class="st0" d="M578.7,76.4c0,24,0,63.6,0,87.6c-5.6,0-11.3,0-17,0c0-24,0-63.6,0-87.6"/>
		<path class="st0" d="M502.3,165.3h-8.1c-21.7,0-39.3-18.2-39.3-40.6V76.9h17.2v47.9c0,12.8,10,23.4,22.1,23.4h8.1
		c12.3,0,22.1-10.4,22.1-23.4V76.9h17.2v47.9C541.8,147.1,524,165.3,502.3,165.3L502.3,165.3z"/>
</g>
	<path class="st1" d="M684.5,88.7H594V47.3c0-22.9,18.5-41.4,41.4-41.4h49.2c22.9,0,41.4,18.5,41.4,41.4l0,0
	C726,70.2,707.5,88.7,684.5,88.7z"/>
	<g>
	<path class="st2" d="M661.4,35.7c2.1,0,3.8,1.7,3.8,3.8h7.7c0-6.3-5.1-11.5-11.5-11.5s-11.5,5.1-11.5,11.5S655.1,51,661.4,51
		c2.1,0,3.8,1.7,3.8,3.8c0,2.1-1.7,3.8-3.8,3.8s-3.8-1.7-3.8-3.8h-7.7c0,6.3,5.1,11.5,11.5,11.5s11.5-5.1,11.5-11.5
		s-5.1-11.5-11.5-11.5c-2.1,0-3.8-1.7-3.8-3.8S659.3,35.7,661.4,35.7z"/>
		<path class="st2" d="M632.7,28.5h-3.1c-6.6,0-11.9,5.3-11.9,11.9v14.3c0,6.6,5.3,11.9,11.9,11.9h3.1c6.6,0,11.9-5.3,11.9-11.9V40.4
		C644.6,33.8,639.2,28.5,632.7,28.5z M636.9,54.7c0,2.3-1.9,4.2-4.2,4.2h-3.1c-2.3,0-4.2-1.9-4.2-4.2V40.4c0-2.3,1.9-4.2,4.2-4.2
		h3.1c2.3,0,4.2,1.9,4.2,4.2V54.7z"/>
		<path class="st2" d="M690.7,43.3c-2.1,0-3.8-1.7-3.8-3.8s1.7-3.8,3.8-3.8c2.1,0,3.8,1.7,3.8,3.8h7.7c0-6.3-5.1-11.5-11.5-11.5
		c-6.3,0-11.5,5.1-11.5,11.5S684.4,51,690.7,51c2.1,0,3.8,1.7,3.8,3.8c0,2.1-1.7,3.8-3.8,3.8c-2.1,0-3.8-1.7-3.8-3.8h-7.7
		c0,6.3,5.1,11.5,11.5,11.5c6.3,0,11.5-5.1,11.5-11.5S697.1,43.3,690.7,43.3z"/>
</g>
</svg>