<svg xmlns="http://www.w3.org/2000/svg" viewBox="0 0 64 64" fill="none" shape-rendering="auto">
    <path d="M45.89 36.1c0 8.5-1.26 18.86-10.89 19.82v9.95S31.36 68 26.5 68c-4.86 0-8.5-3.48-8.5-3.48V42a5 5 0 0 1-1.3-9.83C15.36 22.64 17.5 13 32 13c14.59 0 14.24 11.08 13.96 19.81-.04 1.15-.07 2.25-.07 3.29Z"
          fill="#ffcb7e"/>
    <path d="M35 55.92c-.48.05-.98.07-1.5.07-8.88 0-13.9-7.15-15.5-14.6v23.13S21.64 68 26.5 68c4.86 0 8.5-2.13 8.5-2.13v-9.95Z"
          fill="#000" fill-opacity=".07"/>
    <path d="M34.63 55.95c-.37.03-.74.04-1.13.04-6.53 0-10.97-3.86-13.5-8.87V48.24c0 5.38 2.61 9.75 8.28 9.75h1.35c3.34.03 4.59.04 5-2.04ZM16.7 32.17A5 5 0 0 0 18.14 42c-.48-1.98-.71-3.99-.71-5.9a46.7 46.7 0 0 1-.73-3.93Z"
          fill="#000" fill-opacity=".07"/>
    <rect x="36" y="41" width="3" height="2" rx="1" fill="#000" fill-opacity=".07"/>
    <rect x="7" y="60" width="40" height="23" rx="9" fill="#ff4dd8"/>
    <g fill="#ad3a20">
        <rect x="14" y="26" width="9" height="2" rx="1"/>
        <rect x="14" y="33" width="7" height="2" rx="1"/>
        <rect x="12" y="29" width="13" height="3" rx="1.5"/>
    </g>
    <g transform="translate(1)">
        <path d="M27.93 46a1 1 0 0 1 1-1h9.14a1 1 0 0 1 1 1 5 5 0 0 1-5 5h-1.14a5 5 0 0 1-5-5Z" fill="#66253C"/>
        <path d="M35.76 50.7a5 5 0 0 1-1.69.3h-1.14a5 5 0 0 1-5-4.8c.77-.29 1.9-.25 3.02-.22L32 46c2.21 0 4 1.57 4 3.5 0 .42-.09.83-.24 1.2Z"
              fill="#B03E67"/>
        <path d="M29 45h10v1a1 1 0 0 1-1 1h-8a1 1 0 0 1-1-1v-1Z" fill="#fff"/>
        <path d="M31 45.3c0-.17.13-.3.3-.3h1.4c.17 0 .3.13.3.3v2.4a.3.3 0 0 1-.3.3h-1.4a.3.3 0 0 1-.3-.3v-2.4Z"
              fill="#B03E67"/>
    </g>
    <g transform="translate(0 -1)">
        <path d="M30 37.5a1.5 1.5 0 0 1 3 0v1.23c0 .15-.12.27-.27.27h-2.46a.27.27 0 0 1-.27-.27V37.5ZM40 37.5a1.5 1.5 0 0 1 3 0v1.23c0 .15-.12.27-.27.27h-2.46a.27.27 0 0 1-.27-.27V37.5Z"
              fill="#1B0B47"/>
    </g>
    <path d="M26.5 45s4.5-.5 11-2v2c-1.5.67-5.5 1.6-7.5 2-2.5.5-3.5-2-3.5-2ZM48 44.76S44 44 38 43v2c1.43.59 4.6 1.15 6.5 1.5 2.38.44 3.5-1.74 3.5-1.74ZM33.31 55.24a1 1 0 0 1 .97-1.24h3.44a1 1 0 0 1 .97 1.24l-.25 1a1 1 0 0 1-.97.76h-2.94a1 1 0 0 1-.97-.76l-.25-1Z"
          fill="#ad3a20"/>
</svg>