<svg xmlns="http://www.w3.org/2000/svg" viewBox="0 0 64 64" fill="none" shape-rendering="auto">
    <path d="M45.89 36.1c0 8.5-1.26 18.86-10.89 19.82v9.95S31.36 68 26.5 68c-4.86 0-8.5-3.48-8.5-3.48V42a5 5 0 0 1-1.3-9.83C15.36 22.64 17.5 13 32 13c14.59 0 14.24 11.08 13.96 19.81-.04 1.15-.07 2.25-.07 3.29Z"
          fill="#f5d0c5"/>
    <path d="M35 55.92c-.48.05-.98.07-1.5.07-8.88 0-13.9-7.15-15.5-14.6v23.13S21.64 68 26.5 68c4.86 0 8.5-2.13 8.5-2.13v-9.95Z"
          fill="#000" fill-opacity=".07"/>
    <path d="M34.63 55.95c-.37.03-.74.04-1.13.04-6.53 0-10.97-3.86-13.5-8.87V48.24c0 5.38 2.61 9.75 8.28 9.75h1.35c3.34.03 4.59.04 5-2.04ZM16.7 32.17A5 5 0 0 0 18.14 42c-.48-1.98-.71-3.99-.71-5.9a46.7 46.7 0 0 1-.73-3.93Z"
          fill="#000" fill-opacity=".07"/>
    <rect x="36" y="41" width="3" height="2" rx="1" fill="#000" fill-opacity=".07"/>
    <rect x="7" y="60" width="40" height="23" rx="9" fill="#ff4dd8"/>
    <path d="M28.12 27.47C35.92 28.6 49.6 30.6 51 18 52 9 38.5-1.5 24 8c-9.1 1.35-11.39 8.28-11.9 14.26a3.99 3.99 0 0 0-.8 4.24 3.99 3.99 0 0 0 .87 4.33A4 4 0 1 0 20 32a4 4 0 0 0 3.87-5H24c.95 0 2.4.21 4.12.47Z"
          fill="#ad3a20"/>
    <g transform="translate(1)">
        <path d="M27.93 46a1 1 0 0 1 1-1h9.14a1 1 0 0 1 1 1 5 5 0 0 1-5 5h-1.14a5 5 0 0 1-5-5Z" fill="#66253C"/>
        <path d="M35.76 50.7a5 5 0 0 1-1.69.3h-1.14a5 5 0 0 1-5-4.8c.77-.29 1.9-.25 3.02-.22L32 46c2.21 0 4 1.57 4 3.5 0 .42-.09.83-.24 1.2Z"
              fill="#B03E67"/>
        <path d="M29 45h10v1a1 1 0 0 1-1 1h-8a1 1 0 0 1-1-1v-1Z" fill="#fff"/>
    </g>
    <g transform="translate(0 -1)">
        <path d="M30 37.5a1.5 1.5 0 0 1 3 0v1.23c0 .15-.12.27-.27.27h-2.46a.27.27 0 0 1-.27-.27V37.5ZM40 37.5a1.5 1.5 0 0 1 3 0v1.23c0 .15-.12.27-.27.27h-2.46a.27.27 0 0 1-.27-.27V37.5Z"
              fill="#1B0B47"/>
    </g>
</svg>